<svg id="Layer_1" data-name="Layer 1" xmlns="http://www.w3.org/2000/svg" viewBox="0 0 126.64 126.64"><defs><style>.cls-1{fill:#fefefe;}.cls-2{fill:#de8e17;}.cls-3{fill:#de8f17;}</style></defs><circle class="cls-1" cx="63.32" cy="63.32" r="63.32"/><path class="cls-2" d="M74.08,46.24c7.16,0,14.31,0,21.46,0,3.13,0,4,.62,2.8,4-5.16,14.59-11.55,19.33-26.9,19.3-4.49,0-9,.08-13.47-.07-2.56-.08-3.4.82-3.52,3.43C54,83.26,53.89,83.25,64,83.25c10.47,0,21,0,31.43,0,3.34,0,4.5.67,3,4.33-6,14.88-12.82,19.67-29,19.67-11.14,0-22.29-.08-33.43.06-2.75,0-3.73-.65-3.7-3.57.15-13,0-25.95.09-38.92C32.46,56,41.75,47,51.64,46.49c7.46-.39,15-.08,22.44-.08Z"/><path class="cls-3" d="M98.53,19.8c-2.48,9.28-7.48,16.14-17.11,18.9a19.76,19.76,0,0,1-5.38.73c-13.29,0-26.57-.08-39.85.09-3.07,0-3.94-.8-3.91-3.88A16.16,16.16,0,0,1,48.37,19.31c14.94,0,29.88,0,44.82,0C95,19.33,96.78,18.92,98.53,19.8Z"/></svg>