<svg id="Layer_1" data-name="Layer 1" xmlns="http://www.w3.org/2000/svg" viewBox="0 0 686.19462 677.39163"><path d="M2797.59439,1420.62874c-2.88872,1.48454-6.12912,1.29342-9.19133,1.67255-18.76313,2.32323-37.37615,5.693-56.18578,7.73129-11.01185,1.19328-21.94434,3.248-32.85184,5.24623-17.73692,3.24942-29.13068-9.34519-30.69844-22.62709-3.02188-25.60057-7.42387-51.03638-11.116-76.56037-3.59683-24.865-6.9853-49.76016-10.53236-74.6325q-5.10805-35.81806-10.35119-71.617c-3.07508-21.239-6.26785-42.46207-9.16887-63.72487-.95287-6.98383,1.79724-13.11913,6.2774-18.3555q36.82625-43.04221,73.76106-85.99155c7.3377-8.553,14.57679-17.19227,22.0143-25.65738,2.72823-3.10509,5.94281-5.74755,10.37511-6.15494q-5.472,10.89049-10.94647,21.78277l-.83,1.11975.02752.01318c-5.69527,5.86124-8.3966,13.65618-12.95084,20.3122-9.79378,14.31351-17.92023,29.76092-26.90414,44.63848-4.46882,7.40052-5.91838,15.54184-3.69718,23.47618,4.3518,15.54524,9.76762,30.79533,14.84151,46.13508q10.65639,32.21708,21.45914,64.38564c3.59622,10.75767,6.73761,21.65557,10.48315,32.37858,2.20539,6.31387,4.46693,12.66,6.5107,19.05334,3.47,10.85482,6.46993,21.87171,10.2793,32.60332,4.80477,13.53575,8.93143,27.29863,13.386,40.93329,4.5853,14.03461,9.52036,27.98586,13.53288,42.23135,3.52964,12.531,8.03061,24.78593,11.94537,37.21236.99608,3.16179,2.548,4.8895,6.04009,4.46028A39.63009,39.63009,0,0,1,2797.59439,1420.62874Z" transform="translate(-2506.67317 -789.82113)" style="fill:#fdad16"/><path d="M2728.98,1011.7404q5.47392-10.89182,10.9465-21.78277a112.09715,112.09715,0,0,0,9.20255-19.07013,68.72317,68.72317,0,0,0,10.06811-20.71509c1.71119-.76287,1.98628-2.52686,2.741-3.95068,4.67382-8.818,8.34376-18.151,13.667-26.636a43.8954,43.8954,0,0,1,13.67332,14.021c-3.40918-1.64467-4.86116.65308-6.0695,3.13548-2.60628,5.35431-5.05728,10.78428-7.66866,16.136q-6.71182,13.75527-13.5463,27.45063c-5.94981,11.96172-11.67971,24.04271-17.98522,35.81474-5.68457,10.61284-10.18371,21.79256-15.90526,32.35139-3.66954,6.772-6.49556,13.92162-10.19256,20.69243-3.2836,6.01361-8.1818,11.65216-7.04528,19.60608.4692,3.28359,1.98815,5.9381,3.07124,8.81739,3.33935,8.87713,7.18011,17.56439,10.61386,26.4078,2.15349,5.54612,5.41518,10.67205,7.21243,16.23648,3.74084,11.58208,9.29033,22.39882,13.34117,33.84237,2.93495,8.291,7.56242,15.98242,10.5057,24.27127,4.06847,11.45741,9.1293,22.4577,13.85877,33.61988q5.20953,12.29525,10.17987,24.69232c2.90724,7.273,5.62882,14.6278,8.738,21.83064,3.51478,8.14263,6.92665,16.3206,10.0494,24.635,3.26383,8.69012,7.3085,17.08594,10.9781,25.625,2.20316,5.12669,4.40828,10.25436,6.49272,15.4298,2.682,6.65908,5.15429,13.40328,7.88069,20.04355,3.30084,8.03951,7.1647,15.86978,10.06456,24.046,3.1279,8.81949,7.61319,17.03176,10.62079,25.91288,3.03191,8.95282,7.326,17.47111,10.58219,26.35742,2.61824,7.14505,13.0043,14.15067,18.65372,11.56316,13.43463-6.15357,27.30661-11.21606,40.95592-16.83118,4.70876-1.93707,9.25666-4.32541,14.06872-5.93907,11.68914-3.91962,22.52647-9.84783,34.10467-14.03949,8.79691-3.18467,17.342-7.06535,25.99713-10.6413,8.44444-3.48911,16.90213-6.94673,25.32527-10.48673,9.97166-4.19086,19.872-8.55337,29.87732-12.66118,11.34491-4.65787,22.80753-9.0288,34.15281-13.68575,11.23288-4.61081,22.36116-9.476,33.57652-14.13028,9.82837-4.07871,19.80412-7.81361,29.54828-12.08063,9.33958-4.08987,13.041-12.05371,10.07717-20.95418-2.629-7.895-6.5622-15.26383-9.36461-23.125-3.15231-8.84262-7.59452-17.21879-10.9111-26.01082-5.02876-13.33084-10.642-26.4301-15.96585-39.63035-6.8-16.86028-14.018-33.55215-20.77115-50.44947-4.86235-12.16618-10.1247-24.19859-15.02549-36.37929-4.82971-12.0041-10.26713-23.75942-14.88356-35.87452-4.66946-12.25405-10.00974-24.25314-15.08688-36.351q-8.5825-20.45039-17.21676-40.87907c-5.46025-12.98063-11.19455-25.85671-16.23448-38.99884-2.48161-6.471-5.69659-12.63229-7.8488-19.19788-1.4474-4.41545-3.13254-8.38648-7.80205-10.1155-8.12389-3.008-16.2357-6.0621-24.44429-8.82422-7.10512-2.39081-14.26961-4.6301-21.41854-6.88647-7.60788-2.40124-14.957-5.66863-22.60561-8.06755-6.22419-1.95215-12.373-4.14534-18.5509-6.24422-7.72053-2.62293-15.424-5.29667-23.15841-7.878-7.27574-2.42825-14.60426-4.69951-21.86889-7.15982-7.52891-2.5498-14.982-5.324-22.51795-7.85193-7.61618-2.5548-15.60454-4.25518-22.84094-7.60287-5.36915-2.48386-10.57118-2.34653-15.97193-2.26107-3.23133.05113-5.64457,2.60828-7.25663,4.76977-1.52691,2.04729,2.1479,3.12844,3.08924,4.91281a28.39645,28.39645,0,0,1,1.24517,3.2053c-6.20134-5.04029-11.32664-11.16011-16.8927-16.83774,5.96243-8.04863,14.43666-11.62061,23.977-12.20193,4.31455-.26285,8.89986,1.13491,13.1168,2.52441,20.58631,6.78338,41.106,13.77053,61.618,20.77731,21.60764,7.381,43.165,14.90929,64.7729,22.28952,13.46764,4.59986,26.9373,9.20485,40.49953,13.51345,13.35879,4.244,25.90945,9.18471,31.23764,23.9643,2.86666,7.95164,6.31786,15.69369,9.54358,23.51453q17.44,42.28386,34.901,84.559,18.73353,45.48939,37.41026,91.00205,18.67111,45.25932,37.4539,90.47262c8.10479,19.61439,16.31429,39.18813,24.15833,58.90674,5.55471,13.96357-1.96768,31.906-15.7225,37.71475-26.78981,11.31334-53.68037,22.388-80.52987,33.56014q-38,15.81184-76.00559,31.61019c-22.90261,9.48011-45.84885,18.85509-68.76311,28.30738-13.3085,5.48983-26.76346,10.66583-39.84538,16.654-18.43648,8.43914-36.93166-1.43469-42.64668-16.12638-3.53791-9.09494-7.48831-18.02958-11.26137-27.03281-.89-2.12368-1.55056-4.48328-4.47068-4.68062,2.07108-1.29879,1.54385-3.00283.7987-4.80145-3.04818-7.35765-6.01806-14.74807-9.10388-22.0898-7.64072-18.17853-15.46-36.28318-22.96827-54.516-11.4258-27.74561-22.59484-55.59685-33.98122-83.35882-5.9816-14.58416-12.2824-29.03744-18.27935-43.61551-8.00569-19.46109-15.79758-39.01012-23.79122-58.47628-6.74008-16.41349-13.43359-32.8515-20.53886-49.10766-4.43715-10.15176-3.231-19.81143,1.35574-29.27641,7.22856-14.91655,14.85036-29.6422,22.13811-44.53071,2.17784-4.44923,5.09577-8.60387,6.01458-13.61963l-.02837-.01385Q2728.56377,1012.29931,2728.98,1011.7404Z" transform="translate(-2506.67317 -789.82113)" style="fill:#e92033"/><path d="M2728.17754,1012.87333c-.91881,5.01576-3.83674,9.1704-6.01458,13.61963-7.28775,14.88851-14.90955,29.61416-22.13811,44.53071-4.58671,9.465-5.79289,19.12465-1.35574,29.27641,7.10527,16.25616,13.79878,32.69417,20.53886,49.10766,7.99364,19.46616,15.78553,39.01519,23.79122,58.47628,5.997,14.57807,12.29775,29.03135,18.27935,43.61551,11.38638,27.762,22.55542,55.61321,33.98122,83.35882,7.50832,18.23284,15.32755,36.33749,22.96827,54.516,3.08582,7.34173,6.0557,14.73215,9.10388,22.0898.74515,1.79862,1.27238,3.50266-.7987,4.80145a269.77978,269.77978,0,0,1-28.93586,4.36294,39.71413,39.71413,0,0,0-4.4938.06487c-3.49208.42922-5.044-1.29849-6.04009-4.46028-3.91476-12.42643-8.41573-24.68139-11.94537-37.21236-4.01252-14.24549-8.94758-28.19674-13.53288-42.23135-4.4546-13.63466-8.58126-27.39754-13.386-40.93329-3.80937-10.73161-6.80931-21.7485-10.2793-32.60332-2.04377-6.39338-4.30531-12.73947-6.5107-19.05334-3.74554-10.723-6.88693-21.62091-10.48315-32.37858q-10.75868-32.18311-21.45914-64.38564c-5.07389-15.33975-10.48971-30.58984-14.84151-46.13508-2.2212-7.93434-.77164-16.07566,3.69718-23.47618,8.98391-14.87756,17.11036-30.325,26.90414-44.63848C2719.78094,1026.52951,2722.48227,1018.73457,2728.17754,1012.87333Z" transform="translate(-2506.67317 -789.82113)" style="fill:#fd8014"/><path d="M2789.27837,933.60665a43.86669,43.86669,0,0,0-13.67436-14.01938,11.165,11.165,0,0,0-2.98117-3.90049c-5.872-5.22-11.4005-10.85158-17.489-15.79777-17.24819-14.012-34.63743-27.82306-56.982-33.22057-5.48234-1.3243-10.25383-.56836-14.33527,3.03828-4.11662,3.63777-4.74686,8.31791-3.25544,13.60081a36.92313,36.92313,0,0,0,5.12667,10.58529c7.21065,10.7382,16.75259,19.22732,26.86127,27.07873a269.01333,269.01333,0,0,0,46.64813,29.20086A68.72317,68.72317,0,0,1,2749.129,970.8875c-16.67567-7.91777-32.16316-17.82809-46.93651-28.79756-13.05624-9.69449-25.20317-20.43638-34.68179-33.87758-4.32422-6.13206-8.3173-12.70222-9.56869-19.92587-3.70308-21.37627,5.40963-42.49663,32.21372-44.66815,14.98482-1.214,28.25189,4.51522,41.027,11.49162,19.45208,10.62268,36.62807,24.30778,52.6753,39.49065a29.42256,29.42256,0,0,0,3.23121,2.33381c5.56634,5.6801,10.69164,11.79992,16.89334,16.84039q12.95358,15.04053,25.90639,30.08073c3.03054,5.90933,7.29505,10.92283,11.56652,15.93123,1.44093,3.88053,4.21386,6.96964,6.24259,10.50135,1.83114,3.18769,3.60366,6.43573,2.43282,10.26616-1.309,4.28231-3.5132,7.78334-8.51175,8.44314-5.28362.69745-9.71707-.32964-12.79695-5.24891-3.0208-4.825-5.45979-10.09376-9.8846-13.933-2.77824-5.342-5.85382-10.45829-10.76682-14.17941l-.01446-.01367c-.3781-1.82028-.97935-3.47055-3.04884-4.00248C2800.4927,945.03418,2795.5577,938.72977,2789.27837,933.60665Z" transform="translate(-2506.67317 -789.82113)" style="fill:#3c4a63"/><path d="M2548.87581,1164.00875c11.13951-.00086,22.27914-.03052,33.41851.01135,5.81589.02184,8.76472,2.43459,8.8554,7.06206.09509,4.85215-3.03052,7.97757-8.69916,8.00283q-33.41827.14874-66.83758.00165c-5.61572-.02154-9.0433-3.24234-8.93742-7.85193.10949-4.76745,3.1938-7.2029,9.28046-7.21754C2526.92923,1163.99068,2537.90256,1164.00966,2548.87581,1164.00875Z" transform="translate(-2506.67317 -789.82113)" style="fill:#faac11"/><path d="M2865.1636,832.159c0-10.993-.02063-21.986.00793-32.97891.0166-6.41637,2.21366-9.27528,7.06691-9.35694,5.08027-.08547,7.41713,2.60332,7.42024,8.99669q.01611,33.22837-.11539,66.45682c-.01086,3.95579-.287,7.80364-5.236,8.91152-5.22776,1.17027-9.019-1.79559-9.08415-7.55174-.12991-11.49115-.0385-22.98481-.0385-34.47744Z" transform="translate(-2506.67317 -789.82113)" style="fill:#faac11"/><path d="M3150.76064,1089.75327c11.31514-.002,22.63039-.02966,33.94534.01052,5.01649.01782,7.92941,2.478,8.15037,6.69606.2256,4.30845-2.9012,7.67606-7.951,7.70172q-34.69267.17638-69.38676-.01937a7.18429,7.18429,0,0,1-7.38125-7.71131c.249-4.14079,3.00635-6.63375,7.67959-6.65669C3127.46456,1089.717,3139.11269,1089.75531,3150.76064,1089.75327Z" transform="translate(-2506.67317 -789.82113)" style="fill:#faac11"/><path d="M3106.764,869.43285c.47872,2.85787-1.42842,4.6749-3.15652,6.41812q-17.96357,18.12028-36.05746,36.111c-4.4358,4.40368-7.90445,4.5501-11.54152.82789-2.78612-2.85137-2.4453-7.45736,1.12849-11.06263,12.36863-12.47757,24.8402-24.853,37.22262-37.31706,2.41021-2.42609,5.15025-3.1919,8.14671-1.72823C3105.15583,863.97618,3107.0507,866.09163,3106.764,869.43285Z" transform="translate(-2506.67317 -789.82113)" style="fill:#faac11"/><path d="M2667.77356,1011.71c-2.22568.41062-3.80922-.7315-5.26366-2.18477q-18.5793-18.56322-37.14448-37.1405c-2.48591-2.49751-3.8823-5.39632-2.214-9.00772,2.36628-5.12233,8.155-5.82081,12.78023-1.25528,9.19337,9.07472,18.24682,18.29128,27.34857,27.45869,3.38206,3.40648,6.777,6.80171,10.09181,10.27294,2.39252,2.50543,2.30449,5.62448.94371,8.37476A5.85993,5.85993,0,0,1,2667.77356,1011.71Z" transform="translate(-2506.67317 -789.82113)" style="fill:#faac11"/><path d="M2631.24169,1353.5643c2.71148-.38109,4.81024,1.1178,5.97675,3.77579,1.21935,2.77851,1.04238,5.73782-1.13185,7.91868q-19.26439,19.32332-38.7553,38.41974c-2.96273,2.89445-6.63161,3.05494-9.85008.27485-3.13706-2.70986-3.28916-6.97371-.168-10.15386,12.74576-12.98686,25.64569-25.82232,38.46381-38.73834C2627.239,1353.588,2629.02751,1353.59078,2631.24169,1353.5643Z" transform="translate(-2506.67317 -789.82113)" style="fill:#faac11"/><path d="M2953.64753,888.73638c.0462-3.72194,2.13622-6.86126,3.47659-10.21874,4.35976-10.92071,8.90992-21.76645,13.49877-32.59357.73831-1.74183,1.39272-3.843,3.80592-4.199,1.83733-.271,3.64507-.42726,5.11382,1.06953,2.06306,2.10238,1.81171,4.62292.89814,6.9899-1.72805,4.477-3.73978,8.8441-5.60854,13.26742-3.92931,9.30041-7.81353,18.62-11.782,27.90357-1.02914,2.40746-3.04912,3.66171-5.603,2.958C2955.06064,893.25575,2953.29427,891.69069,2953.64753,888.73638Z" transform="translate(-2506.67317 -789.82113)" style="fill:#f33d45"/><path d="M3080.82455,1015.708c-3.34788.14758-4.98537-1.36466-5.53152-3.8946-.60223-2.78986.60266-4.84889,3.25587-5.96949q13.42062-5.66821,26.851-11.31319c4.4059-1.85579,8.80411-3.73032,13.21977-5.56275,3.35454-1.39206,6.695-1.82324,8.50839,2.13512,1.72231,3.75956-.52992,5.86491-3.83131,7.2476q-20.30041,8.50216-40.59394,17.02084A6.59744,6.59744,0,0,1,3080.82455,1015.708Z" transform="translate(-2506.67317 -789.82113)" style="fill:#f33d45"/><path d="M2624.2004,1084.74447c.03448,4.88187-4.09419,6.74691-9.23728,4.526-4.25142-1.83587-8.48981-3.70265-12.75761-5.49969q-13.01973-5.48208-26.06708-10.89853c-3.07266-1.27792-5.26278-3.29537-3.89155-6.78774,1.3696-3.48813,4.10812-4.27937,7.692-2.7887,13.28112,5.52422,26.63782,10.86723,39.90178,16.43173C2622.04877,1080.65381,2624.57652,1081.83251,2624.2004,1084.74447Z" transform="translate(-2506.67317 -789.82113)" style="fill:#f33d45"/><path d="M2557.57252,1293.68884c-3.3216.24732-4.99414-1.01724-5.68312-3.30354-.72129-2.39346-.33964-4.5753,2.08673-6.04257,4.41229-2.66825,9.35921-4.07315,14.05962-6.05484q13.67286-5.76446,27.43134-11.32456c3.10266-1.2504,6.29857-1.74919,7.84241,2.32219,1.42467,3.75693-.4591,5.83345-3.85062,7.24574-13.26858,5.5251-26.49232,11.15785-39.75006,16.70913A8.018,8.018,0,0,1,2557.57252,1293.68884Z" transform="translate(-2506.67317 -789.82113)" style="fill:#f33d45"/><path d="M3179.05705,1204.13246c-3.23085-.35484-6.85566-2.54785-10.68727-4.02781-9.38944-3.6269-18.629-7.64244-27.91745-11.529-1.37594-.57575-2.69153-1.29635-4.03171-1.95661-2.86514-1.41168-4.4538-3.48777-3.05742-6.74432,1.34006-3.12493,3.75283-3.96923,6.88714-2.693,8.71282,3.54788,17.43644,7.07012,26.1243,10.67834q8.236,3.42058,16.374,7.07525c2.61909,1.175,2.8522,3.54988,2.22623,5.94572C3184.34314,1203.29908,3182.47682,1204.26207,3179.05705,1204.13246Z" transform="translate(-2506.67317 -789.82113)" style="fill:#f33d45"/><path d="M2770.72177,819.14338c-.3838-3.72735,1.21566-5.689,3.83311-6.315,2.71435-.64925,4.71718.90009,5.80021,3.46974q5.691,13.503,11.36144,27.01475c1.60005,3.81231,3.22191,7.61643,4.75093,11.45728,1.1875,2.98291.79411,5.7659-2.27289,7.23184-3.00253,1.43516-5.76652.39947-7.0624-2.6495-5.439-12.797-10.70417-25.668-16.00594-38.52313A7.07944,7.07944,0,0,1,2770.72177,819.14338Z" transform="translate(-2506.67317 -789.82113)" style="fill:#f33d45"/><path d="M2728.98,1011.7404q-.41583.55921-.83082,1.11908Q2728.56542,1012.30063,2728.98,1011.7404Z" transform="translate(-2506.67317 -789.82113)" style="fill:#fd8014"/><path d="M2789.27837,933.60665c6.27933,5.12312,11.21433,11.42753,15.82865,18.01353.24125,1.92469.4227,3.89509,3.04927,4.0023l.01321.01431c.00684,4.399-3.13125,7.18985-5.424,10.35789a50.82625,50.82625,0,0,0-9.67634,28.06677c-.54444,11.997,3.48077,22.53513,10.24767,32.40362,9.58986,13.9853,23.75146,19.43934,39.47557,21.01557,8.16331.8183,16.616-1.47887,24.08725-5.30088a52.16932,52.16932,0,0,0,26.82819-31.626,47.64593,47.64593,0,0,0,.64489-26.34385,51.7574,51.7574,0,0,0-22.64222-32.09793c-5.2939-3.50876-11.14311-5.13164-17.29316-6.69221-5.27709-1.339-10.557-2.579-15.42785-1.08891-3.52928,1.07972-6.13461,1.49934-9.10059-.47527q-12.953-15.0403-25.90639-30.08073a28.45637,28.45637,0,0,0-1.24553-3.20548c-.94134-1.78437-4.61615-2.86552-3.08924-4.91281,1.61206-2.16149,4.0253-4.71864,7.25663-4.76977,5.40075-.08546,10.60278-.22279,15.97193,2.26107,7.2364,3.34769,15.22476,5.04807,22.84094,7.60287,7.53594,2.52789,14.989,5.30213,22.51795,7.85193,7.26463,2.46031,14.59315,4.73157,21.86889,7.15982,7.73438,2.58131,15.43788,5.255,23.15841,7.878,6.17794,2.09888,12.32671,4.29207,18.5509,6.24422,7.64865,2.39892,14.99773,5.66631,22.60561,8.06755,7.14893,2.25637,14.31342,4.49566,21.41854,6.88647,8.20859,2.76212,16.3204,5.81618,24.44429,8.82422,4.66951,1.729,6.35465,5.70005,7.80205,10.1155,2.15221,6.56559,5.36719,12.72691,7.8488,19.19788,5.03993,13.14213,10.77423,26.01821,16.23448,38.99884q8.59944,20.44326,17.21676,40.87907c5.07714,12.09787,10.41742,24.097,15.08688,36.351,4.61643,12.1151,10.05385,23.87042,14.88356,35.87452,4.90079,12.1807,10.16314,24.21311,15.02549,36.37929,6.75314,16.89732,13.97115,33.58919,20.77115,50.44947,5.32386,13.20025,10.93709,26.29951,15.96585,39.63035,3.31658,8.792,7.75879,17.1682,10.9111,26.01082,2.80241,7.86114,6.73557,15.23,9.36461,23.125,2.96381,8.90047-.73759,16.86431-10.07717,20.95418-9.74416,4.267-19.71991,8.00192-29.54828,12.08063-11.21536,4.65426-22.34364,9.51947-33.57652,14.13028-11.34528,4.657-22.8079,9.02788-34.15281,13.68575-10.00528,4.10781-19.90566,8.47032-29.87732,12.66118-8.42314,3.54-16.88083,6.99762-25.32527,10.48673-8.65509,3.57595-17.20022,7.45663-25.99713,10.6413-11.5782,4.19166-22.41553,10.11987-34.10467,14.03949-4.81206,1.61366-9.36,4.002-14.06872,5.93907-13.64931,5.61512-27.52129,10.67761-40.95592,16.83118-5.64942,2.58751-16.03548-4.41811-18.65372-11.56316-3.25624-8.88631-7.55028-17.4046-10.58219-26.35742-3.0076-8.88112-7.49289-17.09339-10.62079-25.91288-2.89986-8.17626-6.76372-16.00653-10.06456-24.046-2.7264-6.64027-5.19865-13.38447-7.88069-20.04355-2.08444-5.17544-4.28956-10.30311-6.49272-15.4298-3.6696-8.539-7.71427-16.93486-10.9781-25.625-3.12275-8.31442-6.53462-16.49239-10.0494-24.635-3.10917-7.20284-5.83075-14.55763-8.738-21.83064q-4.95117-12.38622-10.17987-24.69232c-4.72947-11.16218-9.7903-22.16247-13.85877-33.61988-2.94328-8.28885-7.57075-15.98023-10.5057-24.27127-4.05084-11.44355-9.60033-22.26029-13.34117-33.84237-1.79725-5.56443-5.05894-10.69036-7.21243-16.23648-3.43375-8.84341-7.27451-17.53067-10.61386-26.4078-1.08309-2.87929-2.602-5.5338-3.07124-8.81739-1.13652-7.95392,3.76168-13.59247,7.04528-19.60608,3.697-6.77081,6.523-13.92043,10.19256-20.69243,5.72155-10.55883,10.22069-21.73855,15.90526-32.35139,6.30551-11.772,12.03541-23.853,17.98522-35.81474q6.81636-13.70388,13.5463-27.45063c2.61138-5.35171,5.06238-10.78168,7.66866-16.136C2784.41721,934.25973,2785.86919,931.962,2789.27837,933.60665Zm110.731,222.15523c-.14816-.88982-.3139-1.7667-1.42915-1.94647-3.56739-3.78537-6.55353-7.95231-10.92629-11.16554-23.22286-17.06459-53.86537-13.67278-72.38033,8.3423-4.556,5.41734-6.97929,11.93649-9.99271,18.16444a9.18458,9.18458,0,0,0-2.276,6.8984c.08589,3.99517.03561,7.993.07734,11.98928.236,22.60427,9.283,39.74318,30.15553,50.10042,20.14941,9.99838,38.37549,6.07772,55.74676-6.48217,1.33236,1.00271.26642,2.05876.12607,3.13592-.48629,3.73374-3.04809,6.55918-4.23583,10.02778-2.22556,6.49987-5.08246,12.78408-7.69142,19.15208-2.35719,5.75333-4.78046,11.47993-7.08968,17.25235-2.66669,6.66615-5.18559,13.39162-7.86839,20.05112-3.31109,8.2191-6.74233,16.38974-10.08952,24.59444-3.49123,8.55777-6.6753,17.25406-10.51436,25.65177a19.91883,19.91883,0,0,0-.90787,15.01376c3.43729,9.88853,7.75785,19.48221,11.96643,29.08711,4.4127,10.07063,8.43074,20.29142,12.48808,30.50429,1.31986,3.32234,2.48942,6.77288,4.629,9.80817,1.19452,1.69464,1.95047,1.715,3.5752.84942,12.61088-6.71857,26.363-10.77463,39.29653-16.78419,8.2637-3.8398,17.01307-6.61971,25.44091-10.12438,13.46338-5.59864,26.80855-11.48145,40.26582-17.09528,8.30086-3.46275,16.90042-6.31241,25.10712-9.84966,8.24215-3.55245,16.44628-7.40135,24.7995-10.6421,10.83811-4.20483,21.37234-9.11428,32.23212-13.2833,11.59748-4.452,23.10252-9.2655,34.55166-14.12016,12.53583-5.31543,25.03309-10.68383,37.76657-15.5178,2.77355-1.05293,5.75786-3.40691,3.71592-6.74841-2.03743-3.33387-2.82126-7.04516-4.44325-10.47562-3.78444-8.00382-6.81568-16.36241-10.19658-24.55887q-5.149-12.48268-10.39076-24.927c-3.45126-8.16552-7.30716-16.17708-10.38368-24.47929-3.36681-9.08542-7.11775-17.9981-10.86387-26.92-3.36827-8.02194-7.24633-15.86105-10.10219-24.05861-3.23231-9.278-7.67439-18.01775-11.11949-27.19111-3.05339-8.13024-7.27592-15.85787-9.878-24.11139-2.92176-9.26733-7.6675-17.7047-10.96657-26.80959-3.04436-8.40189-6.71024-16.70456-10.30307-24.96588-3.53407-8.12616-6.96165-16.29922-10.37007-24.47917-2.63448-6.32272-5.11334-12.71034-7.75965-19.02793-2.72478-6.50475-4.91684-13.20743-7.88688-19.63385-3.63707-7.86975-6.62-16.04015-9.95713-24.05086-1.70357-4.08951-3.35844-8.22185-5.41942-12.13237-1.51178-2.8683-4.25957-3.24728-5.70849-.23036a79.41171,79.41171,0,0,0-3.99437,8.494,237.19642,237.19642,0,0,1-9.91942,25.075c-3.96757,8.30621-6.74032,17.05918-10.54191,25.42422-3.84376,8.4579-6.18251,17.6034-10.07668,26.03382-5.29115,11.45457-9.46334,23.34215-14.48892,34.87324-3.79134,8.69913-6.85865,17.66956-10.72767,26.33045a245.84739,245.84739,0,0,0-9.7812,24.14782c-2.64887,8.1604-6.87665,15.6321-9.44607,23.78456-.25422.80659-.77426,1.57943-1.743,1.45568-1.09719-.14023-1.0142-1.1466-1.06271-1.95124a12.2968,12.2968,0,0,0-.07848-2.48426c-.17379-.62267.99943-2.222-1.03458-1.79032-.69065-5.054-3.76528-9.42477-4.09852-14.61248-.13694-2.13095-1.23876-3.82241-3.84071-3.63428Z" transform="translate(-2506.67317 -789.82113)" style="fill:#fd313b"/><path d="M2759.19712,950.17241a269.01333,269.01333,0,0,1-46.64813-29.20086c-10.10868-7.85141-19.65062-16.34053-26.86127-27.07873a36.92313,36.92313,0,0,1-5.12667-10.58529c-1.49142-5.2829-.86118-9.963,3.25544-13.60081,4.08144-3.60664,8.85293-4.36258,14.33527-3.03828,22.34461,5.39751,39.73385,19.20857,56.982,33.22057,6.08854,4.94619,11.61707,10.5778,17.489,15.79777a11.165,11.165,0,0,1,2.98117,3.90049c-5.32218,8.48341-8.99212,17.81646-13.66594,26.63446C2761.1834,947.64555,2760.90831,949.40954,2759.19712,950.17241Z" transform="translate(-2506.67317 -789.82113)" style="fill:#f5f1ee"/><path d="M2829.88894,943.85554c2.966,1.97461,5.57131,1.555,9.10059.47527,4.87086-1.49006,10.15076-.25013,15.42785,1.08891,6.15005,1.56057,11.99926,3.18345,17.29316,6.69221a51.7574,51.7574,0,0,1,22.64222,32.09793,47.64593,47.64593,0,0,1-.64489,26.34385,52.16932,52.16932,0,0,1-26.82819,31.626c-7.47126,3.822-15.92394,6.11918-24.08725,5.30088-15.72411-1.57623-29.88571-7.03027-39.47557-21.01557-6.7669-9.86849-10.79211-20.40657-10.24767-32.40362a50.82625,50.82625,0,0,1,9.67634-28.06677c2.29272-3.168,5.43081-5.95894,5.424-10.35789,4.91425,3.72048,7.98983,8.83673,10.76862,14.1785-14.76768,15.63539-14.24362,38.38685,1.07866,52.83311,6.60244,6.225,14.885,8.22934,23.32925,10.0006q-3.5852.17423-7.17044.34849l.024.539h16.625l.02319-.53824q-3.59711-.179-7.19418-.35811c1.929-.43973,3.84324-.96317,5.78923-1.30654,26.01647-4.59037,39.28427-36.783,21.00675-58.8041-7.93075-9.55511-18.30021-14.24278-30.99406-12.74277C2837.184,954.77837,2832.91948,949.76487,2829.88894,943.85554Z" transform="translate(-2506.67317 -789.82113)" style="fill:#e92035"/><path d="M2841.45546,959.78677c12.69385-1.5,23.06331,3.18766,30.99406,12.74277,18.27752,22.02112,5.00972,54.21373-21.00675,58.8041-1.946.34337-3.86024.86681-5.78733,1.30687q-1.15282.00459-2.30941.00849c-8.44429-1.77126-16.72681-3.77564-23.32925-10.0006-15.32228-14.44626-15.84634-37.19772-1.07866-52.83311,4.42426,3.83946,6.86325,9.10825,9.88405,13.93322,3.07988,4.91927,7.51333,5.94636,12.79695,5.24891,4.99855-.6598,7.20275-4.16083,8.51175-8.44314,1.17084-3.83043-.60168-7.07847-2.43282-10.26616C2845.66932,966.75641,2842.89639,963.6673,2841.45546,959.78677Z" transform="translate(-2506.67317 -789.82113)" style="fill:#f7eeec"/><path d="M2808.15629,955.62248c-2.62657-.10721-2.808-2.07761-3.04927-4.0023C2807.17694,952.15193,2807.77819,953.8022,2808.15629,955.62248Z" transform="translate(-2506.67317 -789.82113)" style="fill:#e92035"/><path d="M2907.90224,1173.972c2.03608-.43716.86286,1.16216,1.03665,1.78483a12.2968,12.2968,0,0,1,.07848,2.48426c.04851.80464-.03448,1.811,1.06271,1.95124.96873.12375,1.48877-.64909,1.743-1.45568,2.56942-8.15246,6.7972-15.62416,9.44607-23.78456a245.84739,245.84739,0,0,1,9.7812-24.14782c3.869-8.66089,6.93633-17.63132,10.72767-26.33045,5.02558-11.53109,9.19777-23.41867,14.48892-34.87324,3.89417-8.43042,6.23292-17.57592,10.07668-26.03382,3.80159-8.365,6.57434-17.118,10.54191-25.42422a237.19642,237.19642,0,0,0,9.91942-25.075,79.41171,79.41171,0,0,1,3.99437-8.494c1.44892-3.01692,4.19671-2.63794,5.70849.23036,2.061,3.91052,3.71585,8.04286,5.41942,12.13237,3.33709,8.01071,6.32006,16.18111,9.95713,24.05086,2.97,6.42642,5.1621,13.1291,7.88688,19.63385,2.64631,6.31759,5.12517,12.70521,7.75965,19.02793,3.40842,8.17995,6.836,16.353,10.37007,24.47917,3.59283,8.26132,7.25871,16.564,10.30307,24.96588,3.29907,9.10489,8.04481,17.54226,10.96657,26.80959,2.60207,8.25352,6.8246,15.98115,9.878,24.11139,3.4451,9.17336,7.88718,17.91316,11.11949,27.19111,2.85586,8.19756,6.73392,16.03667,10.10219,24.05861,3.74612,8.92194,7.49706,17.83462,10.86387,26.92,3.07652,8.30221,6.93242,16.31377,10.38368,24.47929q5.25707,12.43749,10.39076,24.927c3.3809,8.19646,6.41214,16.55505,10.19658,24.55887,1.622,3.43046,2.40582,7.14175,4.44325,10.47562,2.04194,3.3415-.94237,5.69548-3.71592,6.74841-12.73348,4.834-25.23074,10.20237-37.76657,15.5178-11.44914,4.85466-22.95418,9.66813-34.55166,14.12016-10.85978,4.169-21.394,9.07847-32.23212,13.2833-8.35322,3.24075-16.55735,7.08965-24.7995,10.6421-8.2067,3.53725-16.80626,6.38691-25.10712,9.84966-13.45727,5.61383-26.80244,11.49664-40.26582,17.09528-8.42784,3.50467-17.17721,6.28458-25.44091,10.12438-12.93351,6.00956-26.68565,10.06562-39.29653,16.78419-1.62473.8656-2.38068.84522-3.5752-.84942-2.13958-3.03529-3.30914-6.48583-4.629-9.80817-4.05734-10.21287-8.07538-20.43366-12.48808-30.50429-4.20858-9.6049-8.52914-19.19858-11.96643-29.08711a19.91883,19.91883,0,0,1,.90787-15.01376c3.83906-8.39771,7.02313-17.094,10.51436-25.65177,3.34719-8.2047,6.77843-16.37534,10.08952-24.59444,2.6828-6.6595,5.2017-13.385,7.86839-20.05112,2.30922-5.77242,4.73249-11.499,7.08968-17.25235,2.609-6.368,5.46586-12.65221,7.69142-19.15208,1.18774-3.4686,3.74954-6.294,4.23583-10.02778.14035-1.07716,1.20629-2.13321-.12607-3.13537a39.58393,39.58393,0,0,1,2.97363-3.29707c7.35934-6.572,11.54317-14.85139,14.14579-24.29537C2908.85462,1194.08911,2907.57369,1184.0152,2907.90224,1173.972Zm163.21849,69.88427c-.14023-.64689-.30628-1.28939-.417-1.94129-3.93737-23.1791-23.42954-41.51392-46.05962-43.319-26.51735-2.11514-47.79194,12.82612-55.89508,39.25537-2.32014,1.69885-2.04951,3.99626-1.47046,6.36489q.02865,6.444.05724,12.88806c-2.91738,3.52084.44,6.661.81081,9.91929a45.08418,45.08418,0,0,0,10.31844,23.28082,54.26205,54.26205,0,0,0,22.623,16.311c14.3388,5.66356,28.027,3.9677,40.959-2.74519a55.92688,55.92688,0,0,0,18.57652-15.08162C3071.20854,1275.24912,3073.48066,1260.19845,3071.12073,1243.8563Zm-72.08556-148.10644c-8.56014-13.28117-28.41869-11.90592-34.30232,3.9969-3.61791,9.77894-7.67317,19.39773-11.60865,29.05721q-17.423,42.76455-34.89576,85.50865c-12.7679,31.438-25.54178,62.87444-38.08811,94.40109-2.73479,6.8721-6.62859,13.42676-7.04555,21.09855-.0224,2.16561-.13834,4.33494-.051,6.49609a20.28353,20.28353,0,0,0,16.93813,19.25643c5.47972.82349,15.166-3.286,18.36612-9.52308,1.98238-3.86366,3.3388-7.9409,4.95486-11.93435,5.27242-13.02854,10.6996-25.99434,15.99136-39.01519,7.80395-19.20218,15.482-38.45568,23.33026-57.63968,5.19693-12.70311,10.5413-25.35428,15.71908-38.057,8.49942-20.8519,16.82957-41.77386,25.33924-62.625,3.51979-8.62446,8.42492-16.96988,8.91938-26.64175C3002.86319,1105.02418,3004.732,1099.41788,2999.03517,1095.74986Z" transform="translate(-2506.67317 -789.82113)" style="fill:#eb1d32"/><path d="M2805.2809,1169.15661c3.01342-6.22795,5.4367-12.7471,9.99271-18.16444,18.515-22.01508,49.15747-25.40689,72.38033-8.3423,4.37276,3.21323,7.3589,7.38017,10.92458,11.16493.13987.89574.43131,1.68182,1.43086,1.94708l-.04418-.042c3.45248,2.18172,2.72418,6.16657,3.928,9.29681,6.561,17.06067,4.56956,33.54824-5.83395,48.19251-15.25293,21.4703-39.70844,28.07592-63.98839,17.7271-13.22054-5.63494-22.06324-15.87789-27.17438-29.488C2802.8799,1190.75317,2803.33779,1180.04249,2805.2809,1169.15661Zm37.64459,20.43592c2.03243,5.68175,6.36818,8.67658,12.64211,8.73236,6.3106.05614,10.97322-3.44591,13.38752-10.05543,3.01958-6.36135-.29291-12.90881-5.09942-16.41019-5.88-4.28355-12.53837-3.80215-17.681.88647C2840.91272,1177.54328,2839.75,1183.57157,2842.92549,1189.59253Z" transform="translate(-2506.67317 -789.82113)" style="fill:#fdfafa"/><path d="M2805.2809,1169.15661c-1.94311,10.88588-2.401,21.59656,1.61555,32.29174,5.11114,13.61008,13.95384,23.853,27.17438,29.488,24.28,10.34882,48.73546,3.7432,63.98839-17.7271,10.40351-14.64427,12.395-31.13184,5.83395-48.19251-1.20379-3.13024-.47549-7.11509-3.928-9.29681,2.60183-.18825,3.70365,1.50321,3.84059,3.63416.33324,5.18771,3.40787,9.55846,4.09749,14.61523-.32959,10.04591.95134,20.11982-1.79932,30.10136-2.60262,9.444-6.78645,17.72337-14.14579,24.29537a39.58393,39.58393,0,0,0-2.97363,3.29707c-17.37127,12.55934-35.59735,16.48-55.74676,6.48162-20.87251-10.35724-29.91949-27.49615-30.15553-50.10042-.04173-3.99633.00855-7.99411-.07734-11.98928A9.18458,9.18458,0,0,1,2805.2809,1169.15661Z" transform="translate(-2506.67317 -789.82113)" style="fill:#ae283a"/><path d="M2900.00938,1155.76188c-.99955-.26526-1.291-1.05134-1.43086-1.94708C2899.69548,1153.99518,2899.86122,1154.87206,2900.00938,1155.76188Z" transform="translate(-2506.67317 -789.82113)" style="fill:#ae283a"/><path d="M2843.346,1032.649q1.15566-.00408,2.30941-.00852,3.59425.17859,7.19228.35781l-.02319.53824h-16.625l-.024-.539Q2839.7608,1032.82322,2843.346,1032.649Z" transform="translate(-2506.67317 -789.82113)" style="fill:#ae283a"/><path d="M2873.09478,1329.81226c.417-7.67179,4.31076-14.22645,7.04555-21.09855,12.54633-31.52665,25.32021-62.96305,38.08811-94.40109q17.37572-42.78363,34.89576-85.50865c3.93548-9.65948,7.99074-19.27827,11.60865-29.05721,5.88363-15.90282,25.74218-17.27807,34.30232-3.99687,2.94856,6.20068,3.28943,12.24938.14987,18.67434-2.66943,5.4628-4.39332,11.38052-6.682,17.03767q-22.49724,55.61027-45.06208,111.19318c-11.99066,29.56742-24.06186,59.1025-35.9431,88.71385-3.40574,8.488-8.27382,15.2036-18.05747,16.078C2883.49414,1348.33582,2876.45957,1341.97527,2873.09478,1329.81226Z" transform="translate(-2506.67317 -789.82113)" style="fill:#fdf9fa"/><path d="M2968.749,1237.85138c8.10314-26.42925,29.37773-41.37051,55.89508-39.25537,22.63008,1.80508,42.12225,20.1399,46.05962,43.319.11075.6519.2768,1.2944.41684,1.93982.30072,9.34081-.18123,18.57128-4.364,27.17884-8.31611,17.11322-21.23614,27.0568-40.69207,30.15286-23.2768,3.70391-46.81746-11.03849-54.79331-31.45738-1.6243-4.15846-1.53771-8.76842-3.93535-12.62482q-.02865-6.444-.05883-12.88849C2969.00725,1242.38134,2968.76786,1240.09082,2968.749,1237.85138Zm37.22946,17.25668c2.17875,7.38646,8.99022,9.83471,13.96345,9.63346,6.29577-.2547,10.63766-3.686,12.97056-10.25576,1.82366-6.3453-.17221-12.693-5.12036-16.28485-4.20013-3.04889-12.61467-3.041-16.77519.01581C3005.36457,1242.36962,3003.60962,1248.25323,3005.97846,1255.10806Z" transform="translate(-2506.67317 -789.82113)" style="fill:#fdfafa"/><path d="M2873.09478,1329.81226c3.36479,12.163,10.39936,18.52356,20.34563,17.63465,9.78365-.87438,14.65173-7.59,18.05747-16.078,11.88124-29.61135,23.95244-59.14643,35.9431-88.71385q22.54428-55.59126,45.06208-111.19318c2.28866-5.65715,4.01255-11.57487,6.682-17.03767,3.13956-6.425,2.79869-12.47366-.14987-18.67434,5.69684,3.668,3.828,9.27429,3.567,14.37883-.49446,9.67187-5.39959,18.01729-8.91938,26.64175-8.50967,20.85112-16.83982,41.77308-25.33924,62.625-5.17778,12.70275-10.52215,25.35392-15.71908,38.057-7.84825,19.184-15.52631,38.4375-23.33026,57.63968-5.29176,13.02085-10.71894,25.98665-15.99136,39.01519-1.61606,3.99345-2.97248,8.07069-4.95486,11.93435-3.20015,6.23711-12.8864,10.34657-18.36612,9.52308a20.28353,20.28353,0,0,1-16.93813-19.25643C2872.95644,1334.1472,2873.07238,1331.97787,2873.09478,1329.81226Z" transform="translate(-2506.67317 -789.82113)" style="fill:#ae283a"/><path d="M2967.33578,1257.10433c2.3977,3.8564,2.31111,8.46636,3.93541,12.62482,7.97585,20.41889,31.51651,35.16129,54.79331,31.45738,19.45593-3.09606,32.376-13.03964,40.69207-30.15286,4.18274-8.60756,4.66469-17.838,4.364-27.17884,2.36012,16.34362.088,31.39429-10.49694,44.93377a55.92688,55.92688,0,0,1-18.57652,15.08162c-12.932,6.71289-26.62024,8.40875-40.959,2.74519a54.26205,54.26205,0,0,1-22.623-16.311,45.08418,45.08418,0,0,1-10.31844-23.28082C2967.77575,1263.7653,2964.4184,1260.62517,2967.33578,1257.10433Z" transform="translate(-2506.67317 -789.82113)" style="fill:#ae283a"/><path d="M2968.749,1237.85138c.01886,2.23944.25825,4.53-1.472,6.36446C2966.69949,1241.84764,2966.42886,1239.55023,2968.749,1237.85138Z" transform="translate(-2506.67317 -789.82113)" style="fill:#ae283a"/><path d="M2868.95512,1188.26946c-2.4143,6.60952-7.07692,10.11157-13.38752,10.05543-6.27393-.05578-10.60968-3.05061-12.6411-8.72979-.94066-7.05255,2.69574-10.73876,9.102-11.76856C2862.06712,1176.21275,2867.91279,1180.37231,2868.95512,1188.26946Z" transform="translate(-2506.67317 -789.82113)" style="fill:#fd313b"/><path d="M2868.95512,1188.26946c-1.04233-7.89715-6.888-12.05671-16.92666-10.44292-6.40622,1.0298-10.04262,4.716-9.102,11.76856-3.17647-6.02353-2.01378-12.05182,3.24824-16.84936,5.14259-4.68862,11.801-5.17,17.681-.88647C2868.66221,1175.36065,2871.9747,1181.90811,2868.95512,1188.26946Z" transform="translate(-2506.67317 -789.82113)" style="fill:#ae283a"/><path d="M3032.91247,1254.48576c-2.3329,6.5698-6.67479,10.00106-12.97056,10.25576-4.97323.20125-11.7847-2.247-13.96236-9.6309-.05742-2.30827.12193-4.321,1.83953-6.35951,4.40187-5.22409,10.17255-6.14643,16.0566-4.80718C3028.94343,1245.09736,3031.97412,1249.18357,3032.91247,1254.48576Z" transform="translate(-2506.67317 -789.82113)" style="fill:#e92035"/><path d="M3032.91247,1254.48576c-.93835-5.30219-3.969-9.3884-9.03679-10.54183-5.88405-1.33925-11.65473-.41691-16.0566,4.80718-1.7176,2.03849-1.897,4.05124-1.83953,6.35951-2.36993-6.85739-.615-12.741,5.03737-16.8939,4.16052-3.05677,12.57506-3.0647,16.77519-.01581C3032.74026,1241.79278,3034.73613,1248.14046,3032.91247,1254.48576Z" transform="translate(-2506.67317 -789.82113)" style="fill:#ae283a"/></svg>